<svg width="40" height="40" viewBox="0 0 40 40" fill="none" xmlns="http://www.w3.org/2000/svg">
<path d="M19.7598 31.63C18.527 31.63 16.156 31.5359 13.5954 31.2534C10.7503 30.971 8.47419 28.7116 8.18967 25.7931C8 23.8161 8 21.9332 8 21.1801C8 20.4269 8 18.6382 8.18967 16.5671C8.37935 14.1193 10.0864 12.0482 12.4574 11.3892V9.88287C12.4574 8.84729 13.3109 8 14.3541 8C15.3973 8 16.2509 8.84729 16.2509 9.88287V11.0126C18.0528 10.9184 19.2856 10.9184 19.665 10.9184C20.0443 10.9184 21.2772 10.9184 23.0791 11.0126V9.88287C23.0791 8.84729 23.9327 8 24.9759 8C26.0191 8 26.8726 8.84729 26.8726 9.88287V11.4833C29.2436 12.1423 30.9506 14.2135 31.1403 16.6612C31.33 18.7323 31.33 20.5211 31.33 21.2742C31.33 22.0274 31.33 23.8161 31.1403 25.8872C30.8558 28.7116 28.5797 31.0651 25.7346 31.3476C23.3637 31.5359 20.9927 31.63 19.7598 31.63ZM14.4489 9.41215C14.1644 9.41215 13.9748 9.60044 13.9748 9.88287V12.613L13.3109 12.8013C11.3193 13.1779 9.80191 14.7783 9.61224 16.8495C9.42256 18.8265 9.42256 20.6152 9.42256 21.2742C9.42256 22.0274 9.42256 23.722 9.61224 25.699C9.80191 27.8643 11.509 29.653 13.7851 29.8413C16.2509 30.1237 18.527 30.2178 19.7598 30.2178C20.9927 30.2178 23.2688 30.1237 25.7346 29.8413C27.9159 29.653 29.7178 27.8643 29.9074 25.699C30.0971 23.722 30.0971 21.9332 30.0971 21.2742C30.0971 20.6152 30.0971 18.8265 29.9074 16.8495C29.7178 14.7783 28.2004 13.1779 26.2088 12.8013L25.6398 12.7072V9.88287C25.6398 9.60044 25.4501 9.41215 25.1656 9.41215C24.8811 9.41215 24.6914 9.60044 24.6914 9.88287V12.5189L23.9327 12.4247C22.2256 12.3306 20.7082 12.2365 19.9495 12.2365C19.096 12.2365 17.6734 12.2365 15.8715 12.4247L14.9231 12.613V9.88287C14.9231 9.60044 14.7335 9.41215 14.4489 9.41215Z" fill="#3C32CE" stroke="#3C32CE" stroke-width="0.4"/>
<path d="M14.0696 17.5085C13.5006 17.5085 13.0264 17.9792 13.0264 18.5441C13.0264 19.109 13.5006 19.5797 14.0696 19.5797H14.9232C15.4922 19.5797 15.9664 19.109 15.9664 18.5441C15.9664 17.9792 15.4922 17.5085 14.9232 17.5085H14.0696Z" fill="#3C32CE"/>
<path d="M13.0264 23.4396C13.0264 22.8747 13.5006 22.404 14.0696 22.404H14.9232C15.4922 22.404 15.9664 22.8747 15.9664 23.4396C15.9664 24.0044 15.4922 24.4752 14.9232 24.4752H14.0696C13.5006 24.4752 13.0264 24.0044 13.0264 23.4396Z" fill="#3C32CE"/>
<path d="M19.3805 17.5085C18.8115 17.5085 18.3373 17.9792 18.3373 18.5441C18.3373 19.109 18.8115 19.5797 19.3805 19.5797H20.2341C20.8031 19.5797 21.2773 19.109 21.2773 18.5441C21.2773 17.9792 20.8031 17.5085 20.2341 17.5085H19.3805Z" fill="#3C32CE"/>
<path d="M23.6482 18.5441C23.6482 17.9792 24.1224 17.5085 24.6914 17.5085H25.4501C26.0191 17.5085 26.4933 17.9792 26.4933 18.5441C26.4933 19.109 26.0191 19.5797 25.4501 19.5797H24.5966C24.1224 19.5797 23.6482 19.109 23.6482 18.5441Z" fill="#3C32CE"/>
<path d="M19.3805 22.404C18.8115 22.404 18.3373 22.8747 18.3373 23.4396C18.3373 24.0044 18.8115 24.4752 19.3805 24.4752H20.2341C20.8031 24.4752 21.2773 24.0044 21.2773 23.4396C21.2773 22.8747 20.8031 22.404 20.2341 22.404H19.3805Z" fill="#3C32CE"/>
</svg>
