<svg width="71" height="40" viewBox="0 0 71 40" fill="none" xmlns="http://www.w3.org/2000/svg">
<path fill-rule="evenodd" clip-rule="evenodd" d="M13.2455 11.2475C12.9306 12.029 13.0517 12.9754 13.6035 13.5735C13.8834 13.8765 14.271 14.0839 14.7474 14.1238C15.1431 14.1583 15.5899 14.0786 16.0771 13.8633C16.2655 14.3577 16.5212 14.7272 16.8253 14.9798C17.1914 15.2855 17.6113 15.4104 18.0258 15.3945C18.844 15.3626 19.6112 14.7804 19.9503 14.0095V14.0068C20.4294 12.8744 20.171 11.5904 19.7457 10.5908C19.5304 10.0858 19.2693 9.6365 19.019 9.29889C18.8952 9.12876 18.7687 8.98255 18.6529 8.86824C18.5426 8.75925 18.4188 8.66089 18.295 8.61038C18.1711 8.55987 18.015 8.54392 17.8562 8.54126C17.692 8.54126 17.4982 8.55456 17.2883 8.58646C16.8684 8.65026 16.3597 8.78052 15.8456 8.98521C14.8255 9.39193 13.7219 10.115 13.2428 11.2448V11.2475H13.2455Z" fill="#3C32CE"/>
<path fill-rule="evenodd" clip-rule="evenodd" d="M18.2572 3.43725C17.805 3.25117 17.3259 3.33358 16.941 3.55422C16.5561 3.77486 16.2358 4.14171 16.0447 4.59363C15.8536 5.04555 15.8159 5.52936 15.9263 5.9547C16.0393 6.38003 16.3139 6.77347 16.7661 6.95955C17.2183 7.14563 17.6974 7.06322 18.0823 6.84258C18.4672 6.62194 18.7875 6.25509 18.9786 5.80317C19.1697 5.35126 19.2074 4.86744 19.097 4.4421C18.984 4.01677 18.7094 3.62334 18.2572 3.43725Z" fill="#3C32CE"/>
<path fill-rule="evenodd" clip-rule="evenodd" d="M22.0443 4.99504C21.5922 4.80895 21.113 4.89136 20.7281 5.112C20.3432 5.33265 20.0229 5.6995 19.8318 6.15141C19.6407 6.60333 19.603 7.08715 19.7134 7.51248C19.8264 7.93782 20.101 8.33125 20.5532 8.51733C21.0054 8.70342 21.4845 8.62101 21.8694 8.40037C22.2543 8.17972 22.5746 7.81288 22.7657 7.36096C22.9568 6.90904 22.9945 6.42522 22.8841 5.99989C22.7711 5.57455 22.4965 5.18112 22.0443 4.99504Z" fill="#3C32CE"/>
<path fill-rule="evenodd" clip-rule="evenodd" d="M23.374 9.4451C22.4454 9.0623 21.4791 9.70828 21.1104 10.5802C20.7416 11.4548 20.9569 12.5846 21.8856 12.9674C22.8142 13.3502 23.7805 12.7042 24.1492 11.8323C24.518 10.9604 24.3026 9.8279 23.374 9.4451Z" fill="#3C32CE"/>
<path d="M14.8958 8.0238C15.3067 7.0509 14.9602 5.98226 14.1219 5.63696C13.2836 5.29165 12.271 5.80042 11.8601 6.77333C11.4493 7.74624 11.7958 8.81486 12.6341 9.16017C13.4723 9.50548 14.485 8.99671 14.8958 8.0238Z" fill="#3C32CE"/>
<path d="M0.00269014 15.6603V0H4.97949V12.0635H10.6023L10.3708 15.6603H0H0.00269014Z" fill="#3C32CE"/>
<path d="M29.0856 15.6603L25.0535 4.25866H30.3991L32.4043 11.0879L34.3638 4.25866H38.5816L34.6868 15.6603H29.0856Z" fill="#3C32CE"/>
<path d="M46.6241 12.6564C47.071 12.6564 47.542 12.6112 48.0426 12.5208C48.5406 12.4304 49.052 12.2629 49.5742 12.021L50.1286 14.9558C49.5607 15.2429 48.9416 15.4636 48.2741 15.6151C47.6066 15.7666 46.8422 15.8437 45.9809 15.8437C44.4278 15.8437 43.1277 15.5938 42.0753 15.0914C41.0229 14.5916 40.2289 13.9005 39.6905 13.0206C39.1522 12.1407 38.8831 11.1252 38.8831 9.97146C38.8831 8.81774 39.1711 7.75706 39.7471 6.87715C40.3231 5.99724 41.0956 5.31405 42.0619 4.82757C43.0308 4.3411 44.0967 4.09919 45.2649 4.09919C47.001 4.09919 48.3306 4.63351 49.2512 5.70482C50.1717 6.77348 50.6347 8.2967 50.6347 10.2692L43.7683 11.1331C44.2744 12.1513 45.2272 12.659 46.6268 12.659L46.6241 12.6564ZM43.3969 9.03838L47.0144 8.28607C46.9525 7.79959 46.783 7.44072 46.5084 7.20413C46.2312 6.97019 45.8866 6.85057 45.4721 6.85057C44.8584 6.85057 44.3686 7.06058 44.0079 7.47528C43.6472 7.89264 43.4427 8.41101 43.3969 9.03306V9.03838Z" fill="#3C32CE"/>
<path d="M0.102295 35.5606V19.9003H4.89607L8.86082 27.5032L12.7314 19.9003H17.5251V35.5606H12.7314V27.3676L9.80558 32.8305H7.84609L4.89607 27.3676V35.5606H0.102295Z" fill="#3C32CE"/>
<path d="M25.8665 40C25.2824 40 24.736 39.9628 24.23 39.8857C23.7239 39.8086 23.3229 39.7182 23.0322 39.6119L23.4009 36.3102C23.6782 36.3714 23.9769 36.4192 24.2999 36.4591C24.6229 36.4963 24.9379 36.5149 25.2447 36.5149C26.2729 36.5149 27.0158 36.3023 27.468 35.8769C27.9202 35.4516 28.149 34.8003 28.149 33.9204V32.6231C27.7802 33.5482 27.258 34.2208 26.5824 34.6381C25.9068 35.0555 25.1074 35.2628 24.1869 35.2628C22.7577 35.2628 21.6514 34.7498 20.8681 33.7263C20.0849 32.7029 19.6919 31.2567 19.6919 29.3906V24.1563H24.553V29.6405C24.553 30.9909 25.0375 31.6661 26.0037 31.6661C26.604 31.6661 27.0831 31.4242 27.4438 30.9377C27.8044 30.4513 27.9848 29.8159 27.9848 29.0264V24.1563H32.8458V32.8969C32.8458 35.324 32.2402 37.1157 31.0263 38.2694C29.8124 39.4232 28.0924 40 25.8638 40H25.8665Z" fill="#3C32CE"/>
<path d="M35.2683 35.5606V19.8791H40.638C43.2489 19.8791 45.2192 20.2991 46.5488 21.1418C47.8785 21.9845 48.5433 23.2232 48.5433 24.8634C48.5433 26.0012 48.2553 26.9688 47.6793 27.7663C47.1033 28.5638 46.2931 29.1699 45.2488 29.5873C44.2044 30.0047 42.9744 30.212 41.5613 30.212H40.3635V35.5606H35.271H35.2683ZM41.3513 27.0486C42.1642 27.0486 42.794 26.8811 43.2408 26.5488C43.6876 26.2165 43.9084 25.7141 43.9084 25.0469C43.9084 24.4248 43.693 23.9596 43.2624 23.6486C42.8317 23.3375 42.2099 23.1807 41.3971 23.1807H40.3608V27.0512H41.3513V27.0486Z" fill="#3C32CE"/>
<path d="M56.9062 32.5567C57.3503 32.5567 57.824 32.5115 58.3247 32.4211C58.8226 32.3307 59.334 32.1632 59.8562 31.9213L60.408 34.8561C59.8401 35.1432 59.221 35.3639 58.5535 35.5154C57.8859 35.6669 57.1215 35.744 56.2602 35.744C54.7071 35.744 53.4071 35.4941 52.3547 34.9917C51.3022 34.4919 50.5082 33.8008 49.9699 32.9209C49.4316 32.0409 49.1624 31.0255 49.1624 29.8717C49.1624 28.718 49.4504 27.6574 50.0264 26.7774C50.6024 25.8975 51.3749 25.2143 52.3412 24.7279C53.3102 24.2414 54.3761 23.9995 55.5442 23.9995C57.2803 23.9995 58.61 24.5338 59.5305 25.6051C60.4511 26.6738 60.914 28.197 60.914 30.1695L54.0477 31.0334C54.5537 32.0516 55.5066 32.5593 56.9062 32.5593V32.5567ZM53.6789 28.9387L57.2965 28.1864C57.2346 27.6999 57.065 27.341 56.7905 27.1044C56.5132 26.8705 56.1687 26.7509 55.7542 26.7509C55.1405 26.7509 54.6506 26.9609 54.2899 27.3756C53.9293 27.7929 53.7247 28.3113 53.6789 28.9334V28.9387Z" fill="#3C32CE"/>
<path d="M67.4628 35.744C66.3727 35.744 65.4844 35.5632 64.8007 35.1991C64.1171 34.8349 63.6218 34.3431 63.315 33.721C63.0081 33.099 62.8547 32.3998 62.8547 31.6262V26.9821H61.3797V24.159H63.1992L65.3418 20.5622H67.7158V24.159H70.3886V26.9821H67.7158V30.9643C67.7158 31.3126 67.8315 31.5837 68.0603 31.7725C68.2891 31.9612 68.5905 32.0569 68.9593 32.0569C69.3281 32.0569 69.6968 31.9665 70.0656 31.7831L70.4101 34.9465C70.0413 35.2044 69.573 35.4011 69.0051 35.5393C68.4371 35.6749 67.923 35.744 67.4601 35.744H67.4628Z" fill="#3C32CE"/>
</svg>
