<svg width="24" height="24" viewBox="0 0 24 24" fill="none" xmlns="http://www.w3.org/2000/svg">
<path d="M11.738 24C12.3288 24 12.8305 23.5207 12.8305 22.941V13.098H22.3837C22.9633 13.098 23.4649 12.5964 23.4649 12.0056C23.4649 11.4036 22.9633 10.9131 22.3837 10.9131H12.8305V1.05899C12.8305 0.479331 12.3288 0 11.738 0C11.1361 0 10.6456 0.479331 10.6456 1.05899V10.9131H1.09243C0.512773 10.9131 0 11.4036 0 12.0056C0 12.5964 0.512773 13.098 1.09243 13.098H10.6456V22.941C10.6456 23.5207 11.1361 24 11.738 24Z" fill="#3C32CE"/>
</svg>
